{"title":"Reasonable.Doubt.2014.WEBRip.XviD.AC3-TODE.avi","uid":9495378,"size":2588007464,"categoryP":"video","categoryS":"movies","magnet":"?xt=urn:btih:f285e2683ec5b10db9ed69fc00ac7e470b2fb52e&amp;dn=Reasonable.Doubt.2014.WEBRip.XviD.AC3-TODE.avi&amp;tr=udp%3A%2F%2Ftracker.openbittorrent.com%3A80&amp;tr=udp%3A%2F%2Fopen.demonii.com%3A1337&amp;tr=udp%3A%2F%2Ftracker.coppersurfer.tk%3A6969&amp;tr=udp%3A%2F%2Fexodus.desync.com%3A6969","seeders":0,"leechers":1,"uploader":"xxxlavalxxx","files":-1,"time":1390088389,"description":" &lt;a href=&quot;\nhttp://www.imdb.com/title/tt2304953/&quot; rel=&quot;nofollow&quot; target=&quot;_NEW&quot;&gt;\nhttp://www.imdb.com/title/tt2304953/&lt;/a&gt;\n\n\nA District Attorney has his life turned upside down when he's involved in a hit and run and another man is arrested for his crime and charged with murder.\n\nDirector: Peter Howitt\nWriter: Peter A. Dowling\nStars: Samuel L. Jackson, Dominic Cooper, Erin Karpluk\nGenres: Crime | Thriller\nCountry: Germany | Canada\nLanguage: English\n\nThanks: 1080p WEB-DL\n\nFormat                                   : AVI\nFormat/Info                              : Audio Video Interleave\nFormat profile                           : OpenDML\nFile size                                : 2.41 GiB\nDuration                                 : 1h 31mn\nOverall bit rate                         : 3 780 Kbps\nWriting library                          : VirtualDub build 32842/release\n\nVideo\nID                                       : 0\nFormat                                   : MPEG-4 Visual\nFormat profile                           : Advanced Simple@L5\nFormat settings, BVOP                    : 2\nFormat settings, QPel                    : No\nFormat settings, GMC                     : No warppoints\nFormat settings, Matrix                  : Default (H.263)\nCodec ID                                 : XVID\nCodec ID/Hint                            : XviD\nDuration                                 : 1h 31mn\nBit rate                                 : 3 385 Kbps\nWidth                                    : 720 pixels\nHeight                                   : 304 pixels\nDisplay aspect ratio                     : 2.35:1\nFrame rate                               : 23.976 fps\nColor space                              : YUV\nChroma subsampling                       : 4:2:0\nBit depth                                : 8 bits\nScan type                                : Progressive\nCompression mode                         : Lossy\nBits/(Pixel*Frame)                       : 0.645\nStream size                              : 2.16 GiB (90%)\nWriting library                          : XviD 1.2.1 (UTC 2008-12-04)\n\nAudio\nID                                       : 1\nFormat                                   : AC-3\nFormat/Info                              : Audio Coding 3\nMode extension                           : CM (complete main)\nFormat settings, Endianness              : Big\nCodec ID                                 : 2000\nDuration                                 : 1h 31mn\nBit rate mode                            : Constant\nBit rate                                 : 384 Kbps\nChannel(s)                               : 6 channels\nChannel positions                        : Front: L C R, Side: L R, LFE\nSampling rate                            : 48.0 KHz\nBit depth                                : 16 bits\nCompression mode                         : Lossy\nStream size                              : 251 MiB (10%)\nAlignment                                : Split accross interleaves\nInterleave, duration                     : 42 ms (1.00 video frame)\nInterleave, preload duration             : 500 ms\n\n &lt;a href=&quot;\nhttp://i.imgur.com/HdrGGjg.jpg&quot; rel=&quot;nofollow&quot; target=&quot;_NEW&quot;&gt;\nhttp://i.imgur.com/HdrGGjg.jpg&lt;/a&gt; &lt;a href=&quot;\nhttp://i.imgur.com/HFsoihv.jpg&quot; rel=&quot;nofollow&quot; target=&quot;_NEW&quot;&gt;\nhttp://i.imgur.com/HFsoihv.jpg&lt;/a&gt; &lt;a href=&quot;\nhttp://i.imgur.com/iU3n0Pf.jpg&quot; rel=&quot;nofollow&quot; target=&quot;_NEW&quot;&gt;\nhttp://i.imgur.com/iU3n0Pf.jpg&lt;/a&gt; &lt;a href=&quot;\nhttp://i.imgur.com/LDwFFC8.jpg&quot; rel=&quot;nofollow&quot; target=&quot;_NEW&quot;&gt;\nhttp://i.imgur.com/LDwFFC8.jpg&lt;/a&gt; &lt;a href=&quot;\nhttp://i.imgur.com/C5fgsbZ.jpg&quot; rel=&quot;nofollow&quot; target=&quot;_NEW&quot;&gt;\nhttp://i.imgur.com/C5fgsbZ.jpg&lt;/a&gt;","torrent":{"xt":"urn:btih:f285e2683ec5b10db9ed69fc00ac7e470b2fb52e","amp;dn":"Reasonable.Doubt.2014.WEBRip.XviD.AC3-TODE.avi","amp;tr":["udp%3A%2F%2Ftracker.openbittorrent.com%3A80","udp%3A%2F%2Fopen.demonii.com%3A1337","udp%3A%2F%2Ftracker.coppersurfer.tk%3A6969","udp%3A%2F%2Fexodus.desync.com%3A6969"],"infoHash":"f285e2683ec5b10db9ed69fc00ac7e470b2fb52e","infoHashBuffer":{"type":"Buffer","data":[242,133,226,104,62,197,177,13,185,237,105,252,0,172,126,71,11,47,181,46]},"announce":[],"urlList":[]}}